<svg width="23" height="24" viewBox="0 0 23 24" fill="none" xmlns="http://www.w3.org/2000/svg">
<path d="M11.1991 7.60059C10.0545 7.60059 8.95674 8.05528 8.14738 8.86464C7.33802 9.67399 6.88333 10.7717 6.88333 11.9163C6.88333 13.0609 7.33802 14.1586 8.14738 14.968C8.95674 15.7774 10.0545 16.2321 11.1991 16.2321C12.3437 16.2321 13.4414 15.7774 14.2507 14.968C15.0601 14.1586 15.5148 13.0609 15.5148 11.9163C15.5148 10.7717 15.0601 9.67399 14.2507 8.86464C13.4414 8.05528 12.3437 7.60059 11.1991 7.60059ZM11.1991 14.7191C10.4555 14.7191 9.74233 14.4237 9.21653 13.8979C8.69072 13.3721 8.39533 12.659 8.39533 11.9154C8.39533 11.1718 8.69072 10.4586 9.21653 9.93285C9.74233 9.40705 10.4555 9.11165 11.1991 9.11165C11.9427 9.11165 12.6558 9.40705 13.1816 9.93285C13.7074 10.4586 14.0028 11.1718 14.0028 11.9154C14.0028 12.659 13.7074 13.3721 13.1816 13.8979C12.6558 14.4237 11.9427 14.7191 11.1991 14.7191Z" fill="white"/>
<path d="M15.6856 8.44806C16.2413 8.44806 16.6917 7.9976 16.6917 7.44192C16.6917 6.88625 16.2413 6.43579 15.6856 6.43579C15.1299 6.43579 14.6795 6.88625 14.6795 7.44192C14.6795 7.9976 15.1299 8.44806 15.6856 8.44806Z" fill="white"/>
<path d="M19.1641 6.41895C18.948 5.86099 18.6178 5.35428 18.1947 4.93127C17.7715 4.50827 17.2647 4.17827 16.7066 3.96242C16.0536 3.71729 15.3637 3.58474 14.6664 3.57042C13.7676 3.53122 13.4829 3.52002 11.2037 3.52002C8.92449 3.52002 8.63235 3.52002 7.74102 3.57042C7.04418 3.58401 6.35479 3.71658 5.70262 3.96242C5.14443 4.17802 4.63747 4.50792 4.21426 4.93097C3.79106 5.35401 3.46097 5.86084 3.24515 6.41895C2.99997 7.07192 2.86773 7.76187 2.85409 8.45922C2.81395 9.35709 2.80182 9.64175 2.80182 11.9219C2.80182 14.2011 2.80182 14.4914 2.85409 15.3846C2.86809 16.0827 2.99969 16.7715 3.24515 17.4258C3.46157 17.9837 3.79199 18.4903 4.21529 18.9133C4.6386 19.3363 5.14548 19.6663 5.70355 19.8823C6.35449 20.1373 7.04417 20.2793 7.74289 20.3023C8.64169 20.3415 8.92635 20.3536 11.2056 20.3536C13.4848 20.3536 13.7769 20.3536 14.6682 20.3023C15.3655 20.2881 16.0554 20.1559 16.7085 19.9112C17.2664 19.6949 17.7731 19.3646 18.1962 18.9415C18.6193 18.5183 18.9496 18.0117 19.166 17.4538C19.4114 16.8004 19.543 16.1116 19.557 15.4135C19.5972 14.5156 19.6093 14.231 19.6093 11.9508C19.6093 9.67069 19.6093 9.38135 19.557 8.48815C19.5462 7.78094 19.4132 7.08092 19.1641 6.41895ZM18.0273 15.3155C18.0213 15.8534 17.9231 16.3862 17.737 16.891C17.5969 17.2539 17.3823 17.5835 17.1071 17.8585C16.8319 18.1336 16.5022 18.3479 16.1392 18.4879C15.64 18.6731 15.1128 18.7713 14.5805 18.7782C13.6938 18.8192 13.4437 18.8295 11.1701 18.8295C8.89462 18.8295 8.66222 18.8295 7.75875 18.7782C7.22669 18.7716 6.69972 18.6734 6.20102 18.4879C5.83673 18.3488 5.50569 18.1348 5.22932 17.8597C4.95295 17.5846 4.7374 17.2546 4.59662 16.891C4.41317 16.3917 4.31504 15.8651 4.30635 15.3332C4.26622 14.4466 4.25689 14.1964 4.25689 11.9228C4.25689 9.64829 4.25689 9.41589 4.30635 8.51149C4.31239 7.97391 4.41056 7.44134 4.59662 6.93695C4.88129 6.20055 5.46462 5.62095 6.20102 5.33909C6.69997 5.15442 7.22678 5.05625 7.75875 5.04882C8.64635 5.00869 8.89555 4.99749 11.1701 4.99749C13.4446 4.99749 13.678 4.99749 14.5805 5.04882C15.1129 5.05522 15.6402 5.15342 16.1392 5.33909C16.5022 5.47934 16.8318 5.69394 17.107 5.96911C17.3822 6.24429 17.5968 6.57395 17.737 6.93695C17.9205 7.43624 18.0186 7.96284 18.0273 8.49469C18.0674 9.38229 18.0777 9.63149 18.0777 11.906C18.0777 14.1796 18.0777 14.4242 18.0376 15.3164H18.0273V15.3155Z" fill="white"/>
</svg>
