<svg width="23" height="24" viewBox="0 0 23 24" fill="none" xmlns="http://www.w3.org/2000/svg">
<path d="M19.2827 7.23003C18.4682 5.81858 17.2961 4.64676 15.8844 3.8327C14.4536 2.99923 12.8921 2.58203 11.2 2.58203C9.50787 2.58203 7.9464 2.99923 6.51467 3.8327C5.08387 4.66616 3.9508 5.79923 3.11734 7.23003C2.28387 8.66083 1.86667 10.2232 1.86667 11.9154C1.86667 13.6075 2.28294 15.1699 3.11734 16.6007C3.9315 18.0124 5.10371 19.1843 6.5156 19.998C7.9464 20.8315 9.50787 21.2487 11.2 21.2487C12.8921 21.2487 14.4536 20.8315 15.8853 19.998C17.297 19.184 18.4692 18.0122 19.2836 16.6007C20.1171 15.1699 20.5333 13.6075 20.5333 11.9154C20.5333 10.2232 20.1171 8.66083 19.2827 7.23003ZM11.2 4.13136C13.0667 4.13136 14.7205 4.7287 16.1653 5.92243C15.3067 7.01817 14.0317 7.91976 12.3387 8.6291C11.4035 6.93696 10.3899 5.5239 9.29507 4.39176C9.91555 4.2202 10.5562 4.13262 11.2 4.13136ZM5.14267 7.06203C5.82516 6.19536 6.6887 5.48822 7.67293 4.99003C8.80413 6.11096 9.84293 7.51003 10.7903 9.19003C8.9236 9.75003 6.95053 10.03 4.872 10.03C4.3372 10.03 3.93307 10.0179 3.65867 9.9927C3.94471 8.92345 4.45009 7.92542 5.14267 7.06203ZM3.416 11.9154C3.416 11.865 3.4188 11.8034 3.42534 11.7287C3.43187 11.654 3.43467 11.5924 3.43467 11.542C3.67174 11.5551 4.03294 11.5607 4.51827 11.5607C7.00654 11.5607 9.3212 11.2182 11.4613 10.534C11.6359 10.8822 11.8169 11.2742 12.0027 11.71C10.7707 11.9835 9.50693 12.649 8.2124 13.7074C6.91787 14.7658 5.97334 15.8792 5.376 17.0487C4.06934 15.5675 3.416 13.8567 3.416 11.9154ZM11.2 19.6994C9.43227 19.6994 7.8456 19.1515 6.43907 18.0576C7 16.9498 7.86147 15.8904 9.02533 14.8834C10.1883 13.8754 11.3428 13.2472 12.488 12.998C13.2104 14.9944 13.699 17.0678 13.944 19.1767C13.0693 19.5185 12.1391 19.6957 11.2 19.6994ZM17.808 16.0034C17.1971 16.9876 16.3745 17.8233 15.4 18.4496C15.176 16.5083 14.7467 14.6164 14.1129 12.774C14.9828 12.7124 15.7603 12.6807 16.4463 12.6807C17.192 12.6807 18.0199 12.7124 18.928 12.774C18.8062 13.9219 18.423 15.0266 17.808 16.0034ZM16.6507 11.3367C15.568 11.3367 14.5665 11.3806 13.6453 11.4674C13.4502 10.9566 13.2385 10.4524 13.0107 9.95536C14.9389 9.10976 16.3072 8.0831 17.1164 6.87536C18.2364 8.1951 18.8468 9.70056 18.9457 11.3927C18.1879 11.3554 17.4225 11.3367 16.6507 11.3367Z" fill="white"/>
</svg>
