<svg width="23" height="24" viewBox="0 0 23 24" fill="none" xmlns="http://www.w3.org/2000/svg">
<path d="M4.65078 7.43241C5.77862 7.43241 6.69291 6.51812 6.69291 5.39028C6.69291 4.26244 5.77862 3.34814 4.65078 3.34814C3.52294 3.34814 2.60864 4.26244 2.60864 5.39028C2.60864 6.51812 3.52294 7.43241 4.65078 7.43241Z" fill="white"/>
<path d="M8.6212 8.97995V20.3097H12.1389V14.7069C12.1389 13.2285 12.4171 11.7968 14.2501 11.7968C16.058 11.7968 16.0804 13.487 16.0804 14.8002V20.3106H19.6V14.0974C19.6 11.0454 18.9429 8.69995 15.3757 8.69995C13.6631 8.69995 12.5151 9.63982 12.0456 10.5293H11.998V8.97995H8.6212ZM2.88867 8.97995H6.412V20.3097H2.88867V8.97995Z" fill="white"/>
</svg>
